<svg width="32" height="32" viewBox="0 0 32 32" fill="none" xmlns="http://www.w3.org/2000/svg">
  <!-- Background -->
  <rect width="32" height="32" rx="6" fill="#1a1a1a"/>
  
  <!-- AI Brain Icon -->
  <g fill="white">
    <!-- Main brain shape -->
    <path d="M12 12c0-4.4 3.6-8 8-8s8 3.6 8 8c0 2.9-1.6 5.5-4 6.9v2.2c2.4 1.4 4 4 4 6.9 0 4.4-3.6 8-8 8s-8-3.6-8-8c0-2.9 1.6-5.5 4-6.9v-2.2c-2.4-1.4-4-4-4-6.9z"/>
    
    <!-- Neural nodes -->
    <circle cx="14" cy="14" r="1.5" fill="#3b82f6"/>
    <circle cx="18" cy="14" r="1.5" fill="#3b82f6"/>
    <circle cx="14" cy="18" r="1.5" fill="#3b82f6"/>
    <circle cx="18" cy="18" r="1.5" fill="#3b82f6"/>
    <circle cx="16" cy="16" r="2" fill="#10b981"/>
    
    <!-- Connections -->
    <line x1="14" y1="14" x2="16" y2="16" stroke="#3b82f6" stroke-width="1"/>
    <line x1="18" y1="14" x2="16" y2="16" stroke="#3b82f6" stroke-width="1"/>
    <line x1="14" y1="18" x2="16" y2="16" stroke="#3b82f6" stroke-width="1"/>
    <line x1="18" y1="18" x2="16" y2="16" stroke="#3b82f6" stroke-width="1"/>
  </g>
  
  <!-- Test paper -->
  <rect x="8" y="8" width="4" height="6" rx="1" fill="white"/>
  <rect x="9" y="9" width="2" height="0.5" fill="#f59e0b"/>
  <rect x="9" y="10" width="1.5" height="0.5" fill="#f59e0b"/>
  <rect x="9" y="11" width="2.5" height="0.5" fill="#f59e0b"/>
  
  <!-- Checkmark -->
  <path d="M22 10l2 2-4 4-2-2 1-1 3-3z" fill="#10b981"/>
</svg>